<svg width="410" height="455" viewBox="0 0 410 455" fill="none" xmlns="http://www.w3.org/2000/svg">
<path d="M392.989 436.642C396.717 435.998 400.23 434.447 403.217 432.126C404.58 430.699 405.623 428.999 406.277 427.138C406.931 425.276 407.181 423.297 407.011 421.332C407.021 418.096 406.13 414.921 404.437 412.164C403.206 410.066 401.471 408.308 399.389 407.05C397.308 405.792 394.945 405.074 392.515 404.961H390.054L384.296 404.758H358.24C356.659 404.758 355.982 405.412 355.982 407.016V452.674C355.982 454.255 356.637 454.932 358.24 454.932H365.014C366.594 454.932 367.271 454.277 367.271 452.674V437.545H375.558C377.38 437.64 379.113 438.367 380.458 439.6L393.599 452.81C394.797 454.035 396.405 454.775 398.114 454.887H408.207C409.788 454.887 410.172 453.961 409.065 452.832L392.989 436.642ZM391.273 426.932H367.226V415.416H391.273C392.452 415.561 393.536 416.137 394.315 417.033C395.095 417.93 395.515 419.083 395.495 420.271V422.055C395.516 423.245 395.096 424.401 394.317 425.301C393.538 426.201 392.454 426.782 391.273 426.932Z" fill="#D50C2D"/>
<path d="M345.46 444.319H308.137V434.903H337.919C339.499 434.903 340.176 434.248 340.176 432.645V427.158C340.176 425.577 339.522 424.9 337.919 424.9H308.114V415.506H345.46C347.041 415.506 347.718 414.851 347.718 413.248V407.016C347.718 405.435 347.063 404.758 345.46 404.758H298.902C297.321 404.758 296.644 405.412 296.644 407.016V452.719C296.644 454.3 297.299 454.977 298.902 454.977H345.46C347.041 454.977 347.718 454.323 347.718 452.719V446.555C347.718 444.974 346.973 444.319 345.46 444.319Z" fill="#D50C2D"/>
<path d="M288.402 421.242C288.452 418.046 287.565 414.906 285.851 412.209C284.612 410.059 282.857 408.251 280.744 406.95C278.63 405.649 276.226 404.896 273.749 404.758H239.519C237.916 404.758 237.261 405.412 237.261 407.016V452.674C237.261 454.255 237.916 454.932 239.519 454.932H246.879C248.46 454.932 249.137 454.3 249.137 452.674V415.438H268.962C273.184 415.438 277.293 418.238 277.293 422.461V452.719C277.293 454.3 277.948 454.977 279.551 454.977H286.212C287.815 454.977 288.47 454.323 288.47 452.719L288.402 421.242Z" fill="#D50C2D"/>
<path d="M226.852 444.026H194.677L226.92 415.687C227.566 415.191 228.102 414.566 228.491 413.85C228.88 413.134 229.114 412.344 229.177 411.532V407.016C229.177 405.435 228.5 404.758 226.92 404.758H180.249C178.668 404.758 177.991 405.412 177.991 407.016V413.271C177.991 414.851 178.646 415.529 180.249 415.529H210.166L180.158 443.687C179.516 444.187 178.985 444.814 178.596 445.529C178.208 446.244 177.971 447.031 177.9 447.842V452.742C177.9 454.323 178.555 455 180.158 455H226.784C228.365 455 229.042 454.345 229.042 452.742V446.261C229.087 444.681 228.432 444.026 226.852 444.026Z" fill="#D50C2D"/>
<path d="M167.514 404.758H120.911C119.308 404.758 118.653 405.39 118.653 407.016V413.248C118.653 414.829 119.285 415.506 120.911 415.506H138.477V452.719C138.477 454.3 139.132 454.977 140.735 454.977H148.186C149.767 454.977 150.444 454.323 150.444 452.719V415.483H167.537C169.117 415.483 169.794 414.829 169.794 413.225V407.016C169.749 405.48 169.094 404.758 167.514 404.758Z" fill="#D50C2D"/>
<path d="M108.176 444.319H70.9209V434.903H100.703C102.283 434.903 102.961 434.248 102.961 432.645V427.158C102.961 425.577 102.328 424.9 100.703 424.9H70.9209V415.506H108.176C109.757 415.506 110.434 414.851 110.434 413.248V407.016C110.434 405.435 109.779 404.758 108.176 404.758H61.7086C60.1281 404.758 59.4507 405.412 59.4507 407.016V452.719C59.4507 454.3 60.1055 454.977 61.7086 454.977H108.176C109.757 454.977 110.434 454.323 110.434 452.719V446.555C110.412 444.974 109.757 444.319 108.176 444.319Z" fill="#D50C2D"/>
<path d="M48.8385 404.758H41.8165C40.2359 404.758 39.5585 405.412 39.5585 407.016V424.787H11.5831V407.016C11.5831 405.435 10.9283 404.758 9.32516 404.758H2.25791C0.654793 404.758 0 405.412 0 407.016V452.742C0 454.345 0.654793 455 2.25791 455H9.32516C10.9057 455 11.5831 454.368 11.5831 452.742V434.677H39.5811V452.742C39.5811 454.323 40.2359 455 41.839 455H48.8611C50.4417 455 51.119 454.345 51.119 452.742V407.016C51.0739 405.48 50.4191 404.758 48.8385 404.758Z" fill="#D50C2D"/>
<ellipse cx="205.002" cy="184.577" rx="184.39" ry="184.577" fill="#D50C2D"/>
<path d="M297.163 85H269.363C263.106 85 260.424 87.5938 260.424 93.9441V164.334H149.67V93.9441C149.67 87.6832 147.078 85 140.731 85H112.752C106.405 85 103.813 87.5938 103.813 93.9441V275.062C103.813 281.412 106.405 284.006 112.752 284.006H140.731C146.988 284.006 149.67 281.501 149.67 275.062V203.509H260.513V275.062C260.513 281.323 263.106 284.006 269.452 284.006H297.253C303.51 284.006 306.192 281.412 306.192 275.062V93.9441C306.013 87.8621 303.421 85 297.163 85Z" fill="white"/>
</svg>
