<?xml version="1.0" encoding="UTF-8"?>
<svg version="1.1" xmlns="http://www.w3.org/2000/svg" width="512" height="512">
<path d="M0 0 C8.7931107 6.33339632 15.38786772 14.7354346 17.58203125 25.4921875 C17.49428377 27.41465493 17.4052715 29.33721871 17.28710938 31.25805664 C17.10879929 35.81529281 17.11643771 39.66499765 20.07226562 43.35009766 C24.32636976 47.34952392 29.14899923 50.5643819 34.01074219 53.77441406 C38.14231679 56.53455068 42.09844175 59.52452483 46.08203125 62.4921875 C47.67551247 63.65922125 49.26926258 64.82588795 50.86328125 65.9921875 C55.50174881 69.4100057 60.04922475 72.93597537 64.58203125 76.4921875 C71.38223584 81.82518654 78.28477734 86.99447545 85.2590332 92.09716797 C92.21837531 97.19865041 99.08430698 102.41692454 105.9387207 107.65820312 C111.29907131 111.75615051 116.67712738 115.82819863 122.08203125 119.8671875 C128.96500409 125.01178969 135.78656213 130.23268058 142.58203125 135.4921875 C143.525625 135.03328125 144.46921875 134.574375 145.44140625 134.1015625 C155.95380253 129.05109852 165.92663862 124.87918444 177.58203125 123.4921875 C177.64190133 116.05344569 177.63955003 108.61657407 177.59423828 101.17773438 C177.58613469 98.6481174 177.59219832 96.11841331 177.61279297 93.58886719 C177.63995831 89.94871167 177.6159303 86.31191145 177.58203125 82.671875 C177.61115601 80.97936111 177.61115601 80.97936111 177.64086914 79.25265503 C177.65286783 73.41065097 177.65286783 73.41065097 174.83544922 68.54547119 C172.75360261 66.95940894 172.75360261 66.95940894 170.57763672 65.76712036 C165.46866995 62.50315375 163.12666601 56.10842527 161.58203125 50.4921875 C160.79326404 41.64148565 160.62198736 33.194119 165.58203125 25.4921875 C166.23558594 24.43257812 166.23558594 24.43257812 166.90234375 23.3515625 C171.5829726 16.44571666 177.58224476 12.69502726 185.58203125 10.4921875 C196.68180397 9.49367238 206.31651785 10.14271548 215.39453125 17.2421875 C221.45226515 22.89988237 225.17310493 29.94644842 225.91796875 38.2265625 C226.16454765 49.18577517 224.71810432 57.54404895 217.2421875 66.01953125 C215.58203125 67.4921875 215.58203125 67.4921875 213.01948547 68.75886536 C210.37791553 70.24822115 210.37791553 70.24822115 209.9427948 72.86503601 C209.93613297 73.79991348 209.92947113 74.73479095 209.92260742 75.69799805 C209.90296432 76.75887131 209.88332123 77.81974457 209.86308289 78.9127655 C209.86701553 80.05659195 209.87094818 81.2004184 209.875 82.37890625 C209.85987869 83.55105179 209.84475739 84.72319733 209.82917786 85.93086243 C209.78613412 89.68066393 209.77744624 93.42966304 209.76953125 97.1796875 C209.7464001 99.71942263 209.72103768 102.25913848 209.69335938 104.79882812 C209.63034211 111.02995538 209.59554035 117.26076695 209.58203125 123.4921875 C210.33381149 123.6248703 211.08559174 123.7575531 211.8601532 123.89425659 C212.8482045 124.07078766 213.8362558 124.24731873 214.85424805 124.42919922 C215.83290329 124.60313202 216.81155853 124.77706482 217.81987 124.95626831 C233.74073917 128.04526222 247.67886084 136.80401375 259.58203125 147.4921875 C260.27683594 148.10449219 260.97164063 148.71679688 261.6875 149.34765625 C277.27771753 163.94209143 288.48656381 186.03847188 289.7590332 207.47387695 C290.35091162 237.72098614 285.2511212 262.36815811 263.91796875 285.12109375 C245.72584092 303.58701614 223.22355832 314.31841925 197.26293945 314.96484375 C181.84650057 315.07936528 168.84997812 313.17148512 154.6015625 307.34375 C153.92081665 307.06829346 153.2400708 306.79283691 152.53869629 306.5090332 C150.88533593 305.83955659 149.23351543 305.16627907 147.58203125 304.4921875 C141.16262101 310.53870743 134.78904099 316.62910179 128.46742344 322.77780056 C125.52959411 325.632577 122.57903457 328.47077355 119.5925293 331.2746582 C116.70349341 333.9881316 113.85692672 336.74040582 111.03382683 339.52235603 C109.95735165 340.56956325 108.86701832 341.60274076 107.76236153 342.62017632 C102.13357652 347.82205038 98.19041615 352.23122738 97.57948971 360.16368961 C97.51802279 362.35152062 97.53625313 364.52045507 97.59141541 366.70814514 C97.57879632 371.79663395 96.23353211 375.24079799 93.58203125 379.4921875 C93.23269531 380.11222656 92.88335937 380.73226563 92.5234375 381.37109375 C88.24064118 388.23245948 81.29443169 392.42989727 73.58203125 394.4921875 C62.48225853 395.49070262 52.84754465 394.84165952 43.76953125 387.7421875 C37.71179735 382.08449263 33.99095757 375.03792658 33.24609375 366.7578125 C33.00468382 356.02833476 34.25651432 347.18478644 41.87890625 339.0234375 C46.51174577 334.85813225 51.56120731 332.09114448 57.58203125 330.4921875 C58.72341553 330.62310791 59.8647998 330.75402832 61.04077148 330.88891602 C67.37728531 331.56863316 72.00759963 331.27727936 77.36895752 327.55975342 C84.43701647 321.58706169 90.76074085 314.8520469 97.07318115 308.09967041 C99.70541995 305.30220738 102.38494954 302.55082837 105.06054688 299.79492188 C110.2810421 294.40406061 115.44766825 288.96528567 120.58203125 283.4921875 C118.54461369 280.43152883 116.50254072 277.37540868 114.43359375 274.3359375 C98.93820689 251.26671125 93.33722941 224.81978995 98.66503906 197.29174805 C101.91184736 183.41346104 108.2213755 170.95822967 116.58203125 159.4921875 C112.10861345 154.68534725 107.00843722 150.86732895 101.76953125 146.9296875 C100.83173828 146.22005859 99.89394531 145.51042969 98.92773438 144.77929688 C92.85755071 140.19045319 86.77124833 135.6228332 80.67578125 131.06762695 C75.17831734 126.95485742 69.72371524 122.78710142 64.26953125 118.6171875 C56.82448684 112.92835472 49.32054813 107.32983389 41.76220703 101.79272461 C35.67217812 97.32081625 29.64922304 92.7654093 23.64453125 88.1796875 C22.75967041 87.50478271 21.87480957 86.82987793 20.96313477 86.13452148 C17.21139699 83.2711579 13.46381391 80.40293149 9.73046875 77.515625 C8.66024944 76.69519093 7.58994601 75.87486656 6.51953125 75.0546875 C5.64167969 74.37535156 4.76382813 73.69601563 3.859375 72.99609375 C1.61508925 71.51401825 0.2520993 70.70284376 -2.41796875 70.4921875 C-4.66213303 71.25940218 -4.66213303 71.25940218 -7.04296875 72.4296875 C-17.19621291 76.33582835 -30.03912751 76.18883542 -40.03125 71.8125 C-50.14900097 66.21544627 -58.14085451 57.91005859 -61.7578125 46.77734375 C-64.16499055 34.79842815 -63.46202486 22.58097178 -56.91015625 12.07421875 C-43.83447136 -6.07969724 -19.37214163 -12.08020463 0 0 Z M157.17578125 187.5546875 C147.33313001 199.52026352 145.11682493 212.41853196 146.58203125 227.4921875 C148.92244354 239.89080025 156.68917177 250.83919355 166.89453125 258.1484375 C178.977138 265.8510993 192.05249906 267.47978459 206.05859375 264.8359375 C219.08128459 260.93249528 229.70940372 251.84289022 236.29296875 240.06640625 C241.92004996 228.82929559 242.63242497 215.04554845 239.01953125 202.9921875 C233.63869319 189.29378638 223.51415148 179.58490901 210.3515625 173.453125 C191.2034558 166.40029396 170.77984044 173.18058723 157.17578125 187.5546875 Z " fill="#F26614" transform="translate(142.41796875,69.5078125)"/>
</svg>
