<?xml version="1.0" standalone="no"?>
<!DOCTYPE svg PUBLIC "-//W3C//DTD SVG 20010904//EN"
 "http://www.w3.org/TR/2001/REC-SVG-20010904/DTD/svg10.dtd">
<svg version="1.0" xmlns="http://www.w3.org/2000/svg"
 width="270.000000pt" height="270.000000pt" viewBox="0 0 270.000000 270.000000"
 preserveAspectRatio="xMidYMid meet">

<g transform="translate(0.000000,270.000000) scale(0.100000,-0.100000)"
fill="#000000" stroke="none">
<path d="M1147 2685 c-311 -51 -559 -183 -780 -414 -177 -187 -292 -410 -344
-669 -24 -120 -24 -384 0 -504 53 -263 167 -483 350 -675 202 -211 441 -343
725 -400 120 -24 384 -24 504 0 485 97 881 447 1032 910 47 143 60 239 60 417
0 230 -32 382 -125 579 -86 183 -245 376 -418 507 -92 69 -264 159 -371 195
-184 61 -452 84 -633 54z m1024 -611 c41 -12 66 -28 105 -68 144 -147 161
-453 68 -1166 -14 -107 -27 -203 -30 -212 -5 -17 -29 -18 -324 -18 l-319 0 60
132 c173 381 274 692 255 791 -19 102 -129 55 -216 -92 -79 -133 -188 -427
-261 -703 l-34 -128 -242 0 -243 0 -2 443 -3 442 -115 0 -115 0 -3 -442 -2
-443 -225 0 -225 0 0 665 0 665 565 0 565 0 0 -232 0 -233 43 96 c169 375 449
576 698 503z"/>
</g>
</svg>
